<svg xmlns="http://www.w3.org/2000/svg" height="100%" version="1.1" viewBox="0 0 967.66 967.66" width="100%">
 <path d="m163.81 872.6 106.15 26.773c1.463 0.369 2.959 0.557 4.446 0.557 7.972 0 14.917-5.125 17.285-12.752l61.703-198.77 30.76-220.1 0.178-0.701c4.174-16.548-5.895-33.405-22.442-37.58-6.621-1.67-13.29-1.055-19.178 1.339-8.828 3.587-15.898 11.177-18.402 21.104l-6.598 27.065-6.499 26.657-8.387 34.404-9.557 39.197-0.1 0.41-0.287-0.186-0.171-0.109v0.789l-12.698 50.344c-1.185 4.699-4.639 8.496-9.206 10.119-1.58 0.561-3.221 0.836-4.853 0.836-3.083 0-6.133-0.984-8.673-2.879-2.284-1.705-22.327-17.279-22.642-38.947-0.121-8.338 2.703-20.631 16.843-31.836 0.251-0.199 0.51-0.391 0.774-0.572l14.908-10.279 16.545-60.775c-16.742-3.686-45.997-9.133-72.62-9.133-26.109 0-43.625 5.334-49.322 15.016-3.544 6.025-11.965 33.475-13.618 157.96-0.993 74.758 0.812 154.27 1.976 195.02 0.24 8.05 5.86 15.06 13.69 17.03z" />
 <path d="m301.09 435.8c3.862-8.493 9.617-15.747 16.628-21.361 1.258-1.008 2.557-1.961 3.892-2.86 6.353-4.284 13.522-7.328 21.108-8.877v-340.06c0-6.975 5.674-12.649 12.648-12.649h416.53c6.975 0 12.649 5.674 12.649 12.649v421.02h-73.707c-30.86 0-55.968 25.107-55.968 55.968v73.707h-266.39l-9e-3 0.062-1.778 12.424-1.791 12.514-3.578 25h289.11c16.581 0 32.79-6.752 44.472-18.523l101.47-102.26c11.723-11.814 18.178-27.486 18.178-44.127v-435.78c-0.01-34.546-28.11-62.65-62.66-62.65h-416.53c-34.544 0-62.648 28.104-62.648 62.649v401l4.878-17.918c0.88-3.47 2.06-6.78 3.5-9.93zm403.78 148.14v-44.303c0-3.291 2.677-5.967 5.967-5.967h43.912l-49.88 50.27z" />
 <path d="m150.03 945.13 93.17 21.943c11.792 2.777 23.603-4.531 26.38-16.322l1.404-5.969c1.858-7.891-0.804-15.787-6.301-20.98-2.716-2.568-6.122-4.48-10.022-5.398l-93.17-21.941c-2.301-0.543-4.601-0.695-6.836-0.512-9.22 0.762-17.308 7.342-19.544 16.832l-1.405 5.969c-2.77 11.79 4.54 23.6 16.33 26.38z" />
 <path d="m456.67 130.21c4.967-3.545 11.254-5.268 19.223-5.268 6.461 0 11.486 1.417 15.358 4.331 3.923 2.953 7.112 8.22 9.482 15.653 1.983 6.223 8.431 9.87 14.775 8.371l17.906-4.219c3.336-0.786 6.203-2.907 7.93-5.867 1.728-2.96 2.164-6.499 1.207-9.79-4.447-15.296-12.562-27.428-24.119-36.058-11.539-8.615-25.726-12.983-42.166-12.983-14.193 0-27.428 3.309-39.335 9.835-12.278 6.728-21.853 16.665-28.458 29.535-6.358 12.388-9.583 26.91-9.583 43.161 0 14.749 2.777 28.785 8.255 41.717 5.811 13.722 14.521 24.425 25.886 31.811 11.299 7.343 25.75 11.066 42.953 11.066 17.133 0 31.966-4.867 44.088-14.466 12.057-9.545 20.443-23.299 24.931-40.88 0.82-3.218 0.329-6.629-1.369-9.483s-4.462-4.914-7.682-5.728l-18.188-4.594c-3.286-0.829-6.771-0.29-9.65 1.498-2.881 1.787-4.912 4.667-5.629 7.98-1.884 8.714-5.288 15.17-10.119 19.188-4.791 3.985-10.641 5.922-17.882 5.922-6.124 0-11.656-1.533-16.913-4.688-4.792-2.875-8.285-7.251-10.679-13.378-2.821-7.22-4.252-15.987-4.252-26.06 0-7.661 1.229-15.197 3.658-22.4 2.04-6.02 5.43-10.67 10.37-14.2z" />
 <path d="m647.93 249.16h18.656c5.145 0 9.764-3.152 11.64-7.942l53.812-137.44c1.507-3.848 1.016-8.19-1.313-11.603s-6.193-5.455-10.325-5.455h-18.562c-5.225 0-9.896 3.248-11.717 8.144l-32.636 87.771-31.348-87.625c-1.778-4.972-6.489-8.29-11.771-8.29h-19.688c-4.124 0-7.982 2.034-10.312 5.436s-2.833 7.735-1.343 11.58l53.25 137.44c1.87 4.81 6.5 7.98 11.66 7.98z" />
 <path d="m418.83 331.45h289.6c13.808 0 25-11.193 25-25s-11.192-25-25-25h-289.6c-13.808 0-25 11.193-25 25 0 13.8 11.19 25 25 25z" />
 <path d="m413.76 421.07c1.638 0.338 3.334 0.517 5.073 0.517h289.59c13.808 0 25-11.193 25-25 0-13.808-11.192-25-25-25h-289.59c-8.172 0-15.427 3.921-19.988 9.984-2.541 3.377-4.24 7.421-4.802 11.82-0.135 1.047-0.21 2.112-0.21 3.196 0 12.07 8.55 22.14 19.93 24.48z" />
</svg>