<svg xmlns="http://www.w3.org/2000/svg" height="100%" version="1.1" viewBox="0 0 485.21 485.21" width="100%">
 <path d="m485.21 363.91c0 10.637-2.992 20.498-7.785 29.174l-153.2-171.41 151.54-132.58c5.895 9.355 9.446 20.344 9.446 32.219v242.6zm-242.6-111.12 210.86-184.5c-8.653-4.737-18.397-7.642-28.908-7.642h-363.91c-10.524 0-20.271 2.905-28.889 7.642l210.85 184.5zm58.78-11.16-48.809 42.734c-2.855 2.487-6.41 3.729-9.978 3.729-3.57 0-7.125-1.242-9.98-3.729l-48.82-42.736-155.13 173.61c9.299 5.834 20.197 9.329 31.983 9.329h363.91c11.784 0 22.687-3.495 31.983-9.329l-155.15-173.6zm-291.94-152.54c-5.894 9.355-9.448 20.345-9.448 32.215v242.6c0 10.637 2.978 20.498 7.789 29.174l153.18-171.44-151.52-132.54z" />
</svg>