<!DOCTYPE svg  PUBLIC '-//W3C//DTD SVG 1.1//EN'  'http://www.w3.org/Graphics/SVG/1.1/DTD/svg11.dtd'>
<svg style="enable-background:new 0 0 550.801 550.801" xmlns="http://www.w3.org/2000/svg" height="550.8px" width="550.8px" version="1.1" y="0px" x="0px" viewBox="0 0 550.801 550.801">
 <path d="m160.38 282.22c0-14.832-10.299-23.684-28.474-23.684-7.414 0-12.437 0.715-15.071 1.432v47.63c3.114 0.707 6.942 0.949 12.192 0.949 19.39 0 31.35-9.81 31.35-26.33z"/>
 <path d="m272.88 259.02c-8.145 0-13.397 0.717-16.519 1.435v105.52c3.116 0.729 8.142 0.729 12.69 0.729 33.017 0.231 54.554-17.946 54.554-56.474 0.24-33.52-19.38-51.22-50.72-51.22z"/>
 <path d="m488.43 197.02h-13.23v-63.816c0-0.398-0.063-0.799-0.116-1.202-0.021-2.534-0.827-5.023-2.562-6.995l-106.2-121.31c-0.032-0.031-0.063-0.042-0.085-0.076-0.633-0.707-1.371-1.295-2.151-1.804-0.231-0.155-0.464-0.285-0.706-0.419-0.676-0.369-1.393-0.675-2.131-0.896-0.2-0.056-0.38-0.138-0.58-0.19-0.8-0.186-1.63-0.305-2.48-0.305h-260.99c-11.918 0-21.6 9.693-21.6 21.601v175.41h-13.223c-17.049 0-30.873 13.818-30.873 30.873v160.54c0 17.043 13.824 30.87 30.873 30.87h13.224v109.91c0 11.907 9.682 21.601 21.6 21.601h356.4c11.907 0 21.6-9.693 21.6-21.601v-109.9h13.226c17.044 0 30.871-13.827 30.871-30.87v-160.54c0-17.05-13.83-30.87-30.87-30.87zm-391.23-175.42h250.19v110.51c0 5.967 4.841 10.8 10.8 10.8h95.407v54.108h-356.4v-175.42zm265.16 287.42c0 30.876-11.243 52.165-26.82 65.333-16.971 14.117-42.82 20.814-74.396 20.814-18.9 0-32.297-1.197-41.401-2.389v-158.41c13.399-2.149 30.878-3.346 49.304-3.346 30.612 0 50.478 5.508 66.039 17.226 16.75 12.45 27.28 32.31 27.28 60.78zm-281.66 84.48v-159.14c11.241-1.904 27.042-3.346 49.296-3.346 22.491 0 38.527 4.308 49.291 12.928 10.292 8.131 17.215 21.534 17.215 37.328 0 15.799-5.25 29.198-14.829 38.285-12.442 11.728-30.865 16.996-52.407 16.996-4.778 0-9.1-0.243-12.435-0.723v57.67h-36.12v-0.01zm372.9 129.85h-356.4v-104.05h356.4v104.05zm31.3-261.22h-61.989v36.851h57.913v29.674h-57.913v64.848h-36.593v-161.28h98.582v29.91z"/>
</svg>
