<?xml version="1.0" encoding="UTF-8" standalone="no"?>
<svg style="enable-background:new 0 0 478 478" xmlns="http://www.w3.org/2000/svg" version="1.1" y="0px" x="0px" viewBox="0 0 478 478">
 <path d="m110.69 378l-8.312 100h273.25l-8.312-100h-256.63zm22.03 19.75c0.073-0.002 0.146 0.123 0.219 0.125 0.167-0.008 0.333 0.125 0.5 0.125h170c2.642 0 5.062 2.358 5.062 5s-2.421 5-5.062 5h-170c-2.618 0-5.156-2.163-5.344-4.781s2-5.28 4.62-5.47zm131.69 60.25h-135c-2.618 0-5.156-2.038-5.344-4.656s2.007-5.344 4.625-5.344h135.72c2.642 0 5.062 2.358 5.062 5s-2.43 5-5.07 5zm79.9-25h-213c-2.618 0-5.156-2.038-5.344-4.656s2.007-5.344 4.625-5.344h213.72c2.642 0 5.062 2.358 5.062 5s-2.43 5-5.07 5z"/>
 <path d="m103.56 318l-2.56 1.81v38.19h275v-38.194l-1.56-1.81h-270.88z"/>
 <path d="m473.56 229.93l-15-49.934h0.031c-0.593-2-1.97-3.863-3.625-5.094-1.65-1.23-3.9-1.91-5.96-1.91h-60v-60h-15v67.244c-0.005 2.616-1.085 5.215-2.938 7.062l-10 9.878c-1.84 1.86-4.44 2.82-7.06 2.82h-230c-2.616 0-5.215-0.964-7.062-2.816l-10-9.939c-1.852-1.848-2.933-4.385-2.938-7.002v-67.239h-15v60h-60c-2.062 0-4.314 0.675-5.969 1.906s-3.032 3.09-3.625 5.09h0.031l-15 49.934c-0.277 0.93-0.437 1.85-0.437 2.81v160c0 2.492 1.175 5.429 2.938 7.191 1.761 1.77 4.57 3.07 7.062 3.07h74.531l2.469-35.72v-49.531c0-1.319 0.785-2.631 1.719-3.562l5.125-5c0.807-0.806 1.959-1.195 3.094-1.309 0.167-0.008 0.396 0.128 0.562 0.128h275c1.304 0 2.602 0.394 3.531 1.309l4.75 4.936c0.933 0.931 2.219 2.18 1.219 3.498v49.531l3.47 35.71h74.53c2.492 0 5.301-1.304 7.062-3.066s2.937-4.699 2.938-7.191v-69.738h-50v-20h50v-70.256c0-0.96-0.16-1.88-0.44-2.81z"/>
 <path d="m124 0h230v190h-230v-190z"/>
</svg>
