<svg xmlns="http://www.w3.org/2000/svg" enable-background="new 0 0 1000 1000" height="100%" version="1.1" viewBox="0 0 1e3 1e3" width="100%">
 <g transform="translate(0 338) scale(.1 -.1)">
  <path d="m2478.9 941.6c-675.9-72.1-1310.5-386.3-1722.8-855.3-343.3-392.4-553.3-839.9-636.1-1359.5-29.1-182.4-26-626.9 6.1-804.7 96.6-530.3 320.3-953.4 708.1-1341.2 403.1-403.1 872.1-640.7 1456.1-737.2 237.6-39.9 774-39.9 1011.6 0 568.6 95 1031.5 326.5 1410.1 706.6 85.8 84.3 185.5 194.7 223.8 245.2 79.7 104.2 329.5 562.5 803.2 1479.1 386.3 746.5 551.8 956.4 872.1 1111.2 216.1 104.2 574.8 154.8 820 116.5 351-55.2 675.9-265.2 841.5-542.6 268.2-449.1 170.1-1065.3-228.4-1425.5-113.4-104.2-349.5-225.3-519.6-266.7-162.5-39.8-651.4-39.8-797 0-226.8 61.3-306.6 115-594.7 401.6l-263.6 262.1-337.2-665.2c-185.5-366.3-337.2-671.3-337.2-677.5 0-13.8 358.7-282 502.7-375.5 217.7-139.5 544.1-274.4 815.4-335.7 288.1-65.9 712.7-88.9 1023.9-53.7 675.9 73.6 1226.2 337.2 1666.1 797 325 341.8 534.9 721.9 634.6 1151.1 101.2 430.7 78.2 951.8-61.3 1381-61.3 193.3-237.5 539.7-361.7 716-133.4 187-400 453.7-587 587-280.5 199.3-668.3 366.3-1020.8 438.4-744.9 154.8-1572.6-1.5-2198-413.8-164-108.9-452.2-386.3-619.2-596.3-173.2-219.2-262.1-380.1-603.9-1088.3-438.4-912-495.1-1013.1-669.8-1189.4-274.4-277.4-574.8-390.8-977.9-369.4-502.7 26.1-869.1 259-1060.7 674.4-73.6 160.9-99.6 280.5-99.6 479.8 0 331.1 85.8 538 320.3 772.5 165.5 165.5 305 248.3 516.5 309.6 104.2 30.7 154.8 35.2 366.3 33.7 226.8 0 331.1-13.8 484.3-59.8 13.8-4.6 24.5 1.5 24.5 13.8 0 10.7 134.9 254.4 298.9 539.5 165.5 286.6 321.9 557.9 347.9 605.4l49.1 87.4-134.9 55.2c-162.5 69-421.5 139.5-625.4 170.1-191.4 29.2-570 41.5-746.3 23.1z" />
 </g>
</svg>